# xmcd CD database file
#
# Track frame offsets:
#	150
#	14045
#	30817
#	45910
#	58922
#	73382
#	93622
#	112952
#	130495
#	147577
#	163712
#	178085
#	201680
#	218825
#	236647
#
# Disc length: 3335 seconds
#
# Revision: 2
# Processed by: cddbd v1.4PL0 Copyright (c) Steve Scherf et al.
# Submitted via: CDex 1.51
#
DISCID=e90d050f
DTITLE=Eric Clapton with Jimmie Vaugahn - Kind Of Blues - Cd1
DYEAR=1994
DGENRE=Blues
TTITLE0=Motherless Child
TTITLE1=Malted Milk
TTITLE2=How Long Blues
TTITLE3=Kidman Blues
TTITLE4=County Jail
TTITLE5=Forty Four
TTITLE6=Blues Leave Me Alone
TTITLE7=Standin Round Cryin
TTITLE8=Hoochie Coochie Man
TTITLE9=It Hurts Me Too
TTITLE10=Blues Before Sunrise
TTITLE11=Third Degree
TTITLE12=Reconsider Baby
TTITLE13=Sinner's Prayer
TTITLE14=I Can't Judge Nobody
EXTD=Recorded live at the LA Forum11/03/94 YEAR: 1994
EXTT0=
EXTT1=
EXTT2=
EXTT3=
EXTT4=
EXTT5=
EXTT6=
EXTT7=
EXTT8=
EXTT9=
EXTT10=
EXTT11=
EXTT12=
EXTT13=
EXTT14=
PLAYORDER=
